<svg xmlns="http://www.w3.org/2000/svg" xmlns:xlink="http://www.w3.org/1999/xlink" width="50" zoomAndPan="magnify" viewBox="0 0 37.5 37.499999" height="50" preserveAspectRatio="xMidYMid meet" version="1.0"><defs><clipPath id="4b1f7f8030"><path d="M 3.699219 11.503906 L 33.304688 11.503906 L 33.304688 25.566406 L 3.699219 25.566406 Z M 3.699219 11.503906 " clip-rule="nonzero"/></clipPath></defs><g clip-path="url(#4b1f7f8030)"><path fill="#ffffff" d="M 27.050781 25.09375 L 32.894531 19.246094 C 33.300781 18.84375 33.300781 18.175781 32.894531 17.769531 L 27.050781 11.910156 C 26.644531 11.503906 25.976562 11.503906 25.570312 11.910156 C 25.167969 12.316406 25.167969 12.984375 25.570312 13.390625 L 29.640625 17.457031 L 4.753906 17.457031 C 4.175781 17.457031 3.707031 17.925781 3.707031 18.503906 C 3.707031 19.078125 4.175781 19.546875 4.753906 19.546875 L 29.625 19.546875 L 25.558594 23.617188 C 25.347656 23.824219 25.257812 24.085938 25.257812 24.359375 C 25.257812 24.636719 25.363281 24.898438 25.558594 25.105469 C 25.976562 25.5 26.644531 25.5 27.050781 25.09375 Z M 27.050781 25.09375 " fill-opacity="1" fill-rule="nonzero"/></g></svg>