<svg xmlns="http://www.w3.org/2000/svg" xmlns:xlink="http://www.w3.org/1999/xlink" width="50" zoomAndPan="magnify" viewBox="0 0 37.5 37.499999" height="50" preserveAspectRatio="xMidYMid meet" version="1.0"><defs><clipPath id="496c055eaa"><path d="M 3.699219 3.699219 L 33.304688 3.699219 L 33.304688 33.304688 L 3.699219 33.304688 Z M 3.699219 3.699219 " clip-rule="nonzero"/></clipPath></defs><path fill="#ffffff" d="M 19.164062 14.328125 C 18.894531 14.691406 18.570312 14.878906 18.195312 14.878906 C 17.9375 14.878906 17.734375 14.742188 17.578125 14.472656 C 17.421875 14.207031 17.339844 13.875 17.339844 13.472656 C 17.339844 12.980469 17.453125 12.582031 17.671875 12.28125 C 17.890625 11.980469 18.164062 11.828125 18.492188 11.828125 C 18.773438 11.828125 19.023438 11.941406 19.242188 12.167969 C 19.464844 12.394531 19.574219 12.695312 19.574219 13.074219 C 19.574219 13.546875 19.4375 13.960938 19.164062 14.328125 Z M 22.695312 8.820312 C 21.625 7.835938 20.292969 7.339844 18.703125 7.339844 C 17.03125 7.339844 15.609375 7.902344 14.433594 9.023438 C 13.257812 10.148438 12.667969 11.542969 12.667969 13.214844 C 12.667969 14.816406 13.230469 16.191406 14.347656 17.34375 C 15.46875 18.5 16.976562 19.074219 18.875 19.074219 C 20.019531 19.074219 21.140625 18.839844 22.242188 18.367188 C 22.601562 18.214844 22.777344 17.804688 22.632812 17.445312 C 22.480469 17.070312 22.054688 16.898438 21.683594 17.054688 C 20.726562 17.46875 19.789062 17.671875 18.875 17.671875 C 17.417969 17.671875 16.292969 17.230469 15.492188 16.339844 C 14.695312 15.457031 14.292969 14.414062 14.292969 13.21875 C 14.292969 11.921875 14.722656 10.839844 15.578125 9.972656 C 16.429688 9.105469 17.480469 8.671875 18.726562 8.671875 C 19.871094 8.671875 20.839844 9.027344 21.632812 9.738281 C 22.421875 10.453125 22.816406 11.351562 22.816406 12.433594 C 22.816406 13.171875 22.632812 13.789062 22.273438 14.28125 C 21.910156 14.773438 21.535156 15.019531 21.144531 15.019531 C 20.933594 15.019531 20.828125 14.90625 20.828125 14.679688 C 20.828125 14.492188 20.84375 14.277344 20.871094 14.027344 L 21.273438 10.574219 C 21.292969 10.378906 21.144531 10.207031 20.949219 10.207031 L 20.054688 10.207031 C 19.898438 10.207031 19.761719 10.324219 19.734375 10.476562 L 19.683594 10.746094 C 19.292969 10.425781 18.867188 10.265625 18.402344 10.265625 C 17.664062 10.265625 17.03125 10.5625 16.507812 11.148438 C 15.980469 11.734375 15.722656 12.492188 15.722656 13.414062 C 15.722656 14.316406 15.953125 15.046875 16.421875 15.601562 C 16.886719 16.15625 17.445312 16.429688 18.101562 16.429688 C 18.6875 16.429688 19.1875 16.183594 19.605469 15.691406 C 19.917969 16.164062 20.382812 16.398438 20.992188 16.398438 C 21.886719 16.398438 22.664062 16.007812 23.320312 15.226562 C 23.972656 14.445312 24.300781 13.503906 24.300781 12.398438 C 24.300781 11.003906 23.765625 9.808594 22.695312 8.820312 " fill-opacity="1" fill-rule="nonzero"/><g clip-path="url(#496c055eaa)"><path fill="#ffffff" d="M 14.175781 23.832031 L 5.492188 30.5625 L 5.476562 17.820312 Z M 29.730469 31.457031 L 7.21875 31.488281 L 18.496094 22.738281 Z M 17.949219 20.902344 L 15.65625 22.683594 L 10.015625 18.78125 L 10.027344 5.511719 L 26.964844 5.511719 L 26.953125 18.75 L 21.320312 22.667969 L 19.042969 20.902344 C 19.039062 20.898438 19.035156 20.894531 19.03125 20.894531 C 18.710938 20.652344 18.265625 20.65625 17.949219 20.902344 Z M 31.492188 30.558594 L 22.800781 23.816406 L 31.476562 17.785156 Z M 28.742188 17.507812 L 28.742188 14.71875 L 30.746094 16.113281 Z M 6.152344 16.113281 L 8.226562 14.679688 L 8.226562 17.546875 Z M 33.257812 16.101562 C 33.257812 16.046875 33.25 15.964844 33.226562 15.90625 C 33.167969 15.707031 33.042969 15.535156 32.875 15.417969 L 28.742188 12.542969 L 28.753906 4.617188 C 28.753906 4.128906 28.351562 3.726562 27.859375 3.726562 L 9.132812 3.726562 C 8.640625 3.726562 8.238281 4.128906 8.238281 4.617188 L 8.226562 12.507812 L 4.074219 15.378906 C 3.839844 15.539062 3.695312 15.808594 3.6875 16.09375 C 3.6875 16.101562 3.6875 16.109375 3.6875 16.113281 L 3.710938 32.386719 C 3.710938 32.625 3.804688 32.847656 3.972656 33.019531 C 4.140625 33.1875 4.351562 33.242188 4.59375 33.242188 L 32.390625 33.238281 C 32.882812 33.238281 33.28125 32.839844 33.28125 32.34375 L 33.257812 16.101562 " fill-opacity="1" fill-rule="nonzero"/></g></svg>