<svg xmlns="http://www.w3.org/2000/svg" xmlns:xlink="http://www.w3.org/1999/xlink" width="50" zoomAndPan="magnify" viewBox="0 0 37.5 37.499999" height="50" preserveAspectRatio="xMidYMid meet" version="1.0"><defs><g/></defs><g fill="#ffffff" fill-opacity="1"><g transform="translate(10.274761, 20.019136)"><g><path d="M -1.140625 2.40625 C -0.640625 2.40625 -0.1875 2.164062 0.21875 1.6875 C 0.632812 1.207031 0.960938 0.570312 1.203125 -0.21875 C 1.441406 -1.019531 1.5625 -1.898438 1.5625 -2.859375 L 1.5625 -13.859375 C 1.5625 -14.097656 1.476562 -14.300781 1.3125 -14.46875 C 1.15625 -14.632812 0.953125 -14.71875 0.703125 -14.71875 C 0.609375 -14.71875 0.5625 -14.773438 0.5625 -14.890625 C 0.5625 -14.992188 0.609375 -15.046875 0.703125 -15.046875 L 5.3125 -15.046875 C 5.40625 -15.046875 5.453125 -14.992188 5.453125 -14.890625 C 5.453125 -14.773438 5.40625 -14.71875 5.3125 -14.71875 C 5.082031 -14.71875 4.878906 -14.632812 4.703125 -14.46875 C 4.535156 -14.300781 4.453125 -14.097656 4.453125 -13.859375 L 4.453125 -2.859375 C 4.453125 -1.835938 4.195312 -0.90625 3.6875 -0.0625 C 3.1875 0.78125 2.515625 1.453125 1.671875 1.953125 C 0.828125 2.453125 -0.109375 2.703125 -1.140625 2.703125 C -1.242188 2.703125 -1.296875 2.65625 -1.296875 2.5625 C -1.296875 2.457031 -1.242188 2.40625 -1.140625 2.40625 Z M -1.140625 2.40625 "/></g></g></g><g fill="#ffffff" fill-opacity="1"><g transform="translate(14.260495, 31.728565)"><g><path d="M 4.5625 -12.609375 L 8.375 -3.5 L 12.203125 -12.609375 C 12.296875 -12.835938 12.296875 -13.019531 12.203125 -13.15625 C 12.117188 -13.28125 11.984375 -13.34375 11.796875 -13.34375 C 11.703125 -13.34375 11.65625 -13.390625 11.65625 -13.484375 C 11.65625 -13.578125 11.703125 -13.625 11.796875 -13.625 L 12.71875 -13.625 C 12.71875 -13.625 12.796875 -13.625 12.953125 -13.625 C 13.109375 -13.625 13.257812 -13.625 13.40625 -13.625 C 13.5625 -13.625 13.640625 -13.625 13.640625 -13.625 C 13.734375 -13.625 13.78125 -13.578125 13.78125 -13.484375 C 13.78125 -13.390625 13.734375 -13.34375 13.640625 -13.34375 C 13.410156 -13.34375 13.175781 -13.257812 12.9375 -13.09375 C 12.707031 -12.925781 12.546875 -12.726562 12.453125 -12.5 L 8.515625 -3.078125 L 7.265625 -0.078125 C 7.253906 -0.0664062 7.25 -0.0625 7.25 -0.0625 C 7.25 -0.0625 7.238281 -0.0507812 7.21875 -0.03125 C 7.207031 -0.0195312 7.203125 -0.015625 7.203125 -0.015625 C 7.203125 -0.015625 7.195312 -0.015625 7.1875 -0.015625 C 7.175781 -0.00390625 7.171875 0 7.171875 0 C 7.148438 0 7.132812 0 7.125 0 C 7.113281 0 7.09375 -0.00390625 7.0625 -0.015625 C 7.050781 -0.015625 7.050781 -0.015625 7.0625 -0.015625 C 7.082031 -0.00390625 7.082031 -0.00390625 7.0625 -0.015625 C 7.050781 -0.015625 7.039062 -0.0195312 7.03125 -0.03125 C 7.019531 -0.0507812 7.003906 -0.0664062 6.984375 -0.078125 L 6.984375 -0.109375 L 1.796875 -12.5 C 1.703125 -12.726562 1.535156 -12.925781 1.296875 -13.09375 C 1.066406 -13.257812 0.835938 -13.34375 0.609375 -13.34375 C 0.515625 -13.34375 0.46875 -13.390625 0.46875 -13.484375 C 0.46875 -13.578125 0.515625 -13.625 0.609375 -13.625 L 4.96875 -13.625 C 5.070312 -13.625 5.125 -13.578125 5.125 -13.484375 C 5.125 -13.390625 5.070312 -13.34375 4.96875 -13.34375 C 4.78125 -13.34375 4.644531 -13.28125 4.5625 -13.15625 C 4.46875 -13.019531 4.46875 -12.835938 4.5625 -12.609375 Z M 4.5625 -12.609375 "/></g></g></g></svg>