<svg xmlns="http://www.w3.org/2000/svg" xmlns:xlink="http://www.w3.org/1999/xlink" width="50" zoomAndPan="magnify" viewBox="0 0 37.5 37.499999" height="50" preserveAspectRatio="xMidYMid meet" version="1.0"><defs><clipPath id="5e1b82e967"><path d="M 6.582031 25 L 30.265625 25 L 30.265625 33.304688 L 6.582031 33.304688 Z M 6.582031 25 " clip-rule="nonzero"/></clipPath><clipPath id="98bc6c5cca"><path d="M 8 3.699219 L 28 3.699219 L 28 31 L 8 31 Z M 8 3.699219 " clip-rule="nonzero"/></clipPath></defs><g clip-path="url(#5e1b82e967)"><path fill="#ffffff" d="M 18.496094 33.28125 C 15.425781 33.28125 12.53125 32.929688 10.34375 32.292969 C 7.878906 31.578125 6.578125 30.5625 6.578125 29.359375 C 6.578125 26.960938 11.691406 25.785156 16.070312 25.511719 C 16.421875 25.488281 16.726562 25.753906 16.746094 26.105469 C 16.769531 26.457031 16.503906 26.761719 16.152344 26.78125 C 13.726562 26.933594 11.53125 27.324219 9.972656 27.882812 C 8.410156 28.4375 7.855469 29.027344 7.855469 29.359375 C 7.855469 29.6875 8.453125 30.414062 10.699219 31.070312 C 12.773438 31.675781 15.542969 32.007812 18.496094 32.007812 C 21.453125 32.007812 24.222656 31.675781 26.296875 31.070312 C 28.542969 30.414062 29.140625 29.6875 29.140625 29.359375 C 29.140625 28.5 26.125 27.085938 20.667969 26.773438 C 20.316406 26.753906 20.046875 26.453125 20.066406 26.101562 C 20.085938 25.75 20.390625 25.480469 20.738281 25.5 C 25.203125 25.757812 30.417969 26.921875 30.417969 29.359375 C 30.417969 30.5625 29.113281 31.578125 26.652344 32.292969 C 24.464844 32.929688 21.570312 33.28125 18.496094 33.28125 Z M 18.496094 33.28125 " fill-opacity="1" fill-rule="nonzero"/></g><g clip-path="url(#98bc6c5cca)"><path fill="#ffffff" d="M 18.398438 30.546875 C 18.167969 30.546875 17.953125 30.421875 17.839844 30.21875 C 17.265625 29.179688 16.378906 27.769531 15.351562 26.136719 C 12.484375 21.578125 8.917969 15.902344 8.917969 13.199219 C 8.917969 7.972656 13.171875 3.71875 18.398438 3.71875 C 23.625 3.71875 27.875 7.972656 27.875 13.199219 C 27.875 16.039062 24.515625 21.324219 21.554688 25.988281 C 20.53125 27.59375 19.570312 29.109375 18.957031 30.21875 C 18.84375 30.421875 18.628906 30.546875 18.398438 30.546875 Z M 18.398438 4.992188 C 13.875 4.992188 10.191406 8.675781 10.191406 13.199219 C 10.191406 15.535156 13.800781 21.273438 16.429688 25.460938 C 17.179688 26.652344 17.855469 27.726562 18.398438 28.636719 C 18.984375 27.65625 19.714844 26.503906 20.476562 25.304688 C 23.0625 21.238281 26.601562 15.667969 26.601562 13.199219 C 26.601562 8.675781 22.921875 4.992188 18.398438 4.992188 Z M 18.398438 4.992188 " fill-opacity="1" fill-rule="nonzero"/></g><path fill="#ffffff" d="M 18.398438 17.453125 C 15.867188 17.453125 13.808594 15.394531 13.808594 12.863281 C 13.808594 10.335938 15.867188 8.277344 18.398438 8.277344 C 20.925781 8.277344 22.984375 10.335938 22.984375 12.863281 C 22.984375 15.394531 20.925781 17.453125 18.398438 17.453125 Z M 18.398438 9.550781 C 16.570312 9.550781 15.082031 11.039062 15.082031 12.863281 C 15.082031 14.691406 16.570312 16.175781 18.398438 16.175781 C 20.222656 16.175781 21.710938 14.691406 21.710938 12.863281 C 21.710938 11.039062 20.222656 9.550781 18.398438 9.550781 Z M 18.398438 9.550781 " fill-opacity="1" fill-rule="nonzero"/></svg>