<svg xmlns="http://www.w3.org/2000/svg" xmlns:xlink="http://www.w3.org/1999/xlink" width="50" zoomAndPan="magnify" viewBox="0 0 37.5 37.499999" height="50" preserveAspectRatio="xMidYMid meet" version="1.0"><defs><clipPath id="ea17235692"><path d="M 4 3.847656 L 33.304688 3.847656 L 33.304688 33.453125 L 4 33.453125 Z M 4 3.847656 " clip-rule="nonzero"/></clipPath></defs><g clip-path="url(#ea17235692)"><path fill="#ffffff" d="M 33.109375 26.042969 C 32.910156 25.449219 32.457031 24.980469 31.867188 24.757812 L 25.675781 22.4375 C 25.046875 22.199219 24.386719 22.269531 23.820312 22.636719 L 21.734375 23.988281 C 21.34375 24.238281 20.875 24.242188 20.480469 23.992188 C 19.019531 23.070312 17.65625 21.976562 16.425781 20.742188 C 15.191406 19.511719 14.097656 18.144531 13.171875 16.683594 C 12.925781 16.289062 12.925781 15.820312 13.179688 15.429688 L 14.53125 13.347656 C 14.894531 12.78125 14.96875 12.121094 14.730469 11.488281 L 12.410156 5.300781 C 12.1875 4.710938 11.71875 4.257812 11.125 4.058594 C 10.527344 3.859375 9.882812 3.941406 9.347656 4.28125 L 6.109375 6.351562 C 4.46875 7.398438 3.703125 9.296875 4.152344 11.191406 C 5.40625 16.441406 8.136719 21.261719 12.039062 25.125 C 15.90625 29.03125 20.726562 31.761719 25.976562 33.011719 C 26.335938 33.097656 26.695312 33.140625 27.050781 33.140625 C 28.558594 33.140625 29.96875 32.382812 30.816406 31.058594 L 32.886719 27.816406 C 33.226562 27.285156 33.308594 26.640625 33.109375 26.042969 Z M 32.117188 27.328125 L 30.046875 30.566406 C 29.210938 31.875 27.695312 32.484375 26.1875 32.125 C 21.101562 30.914062 16.433594 28.269531 12.683594 24.480469 C 8.898438 20.734375 6.253906 16.0625 5.042969 10.980469 C 4.679688 9.46875 5.292969 7.957031 6.601562 7.121094 L 9.839844 5.050781 C 10.03125 4.925781 10.25 4.863281 10.46875 4.863281 C 10.59375 4.863281 10.714844 4.882812 10.835938 4.921875 C 11.167969 5.035156 11.429688 5.289062 11.554688 5.621094 L 13.875 11.808594 C 14.011719 12.167969 13.972656 12.527344 13.765625 12.851562 L 12.414062 14.933594 C 11.96875 15.621094 11.964844 16.480469 12.402344 17.171875 C 13.363281 18.691406 14.5 20.109375 15.78125 21.386719 C 17.058594 22.667969 18.476562 23.804688 19.996094 24.765625 C 20.6875 25.203125 21.542969 25.199219 22.230469 24.753906 L 24.316406 23.402344 C 24.636719 23.195312 24.996094 23.15625 25.355469 23.289062 L 31.546875 25.613281 C 31.878906 25.738281 32.132812 26 32.242188 26.332031 C 32.355469 26.664062 32.308594 27.027344 32.117188 27.328125 Z M 32.117188 27.328125 " fill-opacity="1" fill-rule="nonzero"/></g></svg>